<svg width="16" height="16" viewBox="0 0 16 16" fill="none" xmlns="http://www.w3.org/2000/svg">
<path d="M8 3V3.5H8.5H12.134C12.4294 3.5 12.7152 3.60486 12.9413 3.79592L15.0111 5.54571C15.1497 5.66306 15.2612 5.80922 15.3376 5.97403C15.4141 6.13884 15.4537 6.31833 15.4537 6.5C15.4537 6.68167 15.4141 6.86116 15.3376 7.02597C15.2612 7.19078 15.1497 7.33694 15.0111 7.45429L12.9412 9.20417L12.9411 9.20429C12.7154 9.39516 12.4295 9.49993 12.134 9.5C12.134 9.5 12.1339 9.5 12.1339 9.5H8.5H8V10V15.25C8 15.3163 7.97366 15.3799 7.92678 15.4268C7.87989 15.4737 7.8163 15.5 7.75 15.5C7.6837 15.5 7.62011 15.4737 7.57322 15.4268C7.52634 15.3799 7.5 15.3163 7.5 15.25V10V9.5H7H2.75C2.41848 9.5 2.10054 9.3683 1.86612 9.13388C1.6317 8.89946 1.5 8.58152 1.5 8.25V4.75C1.5 4.06014 2.06014 3.5 2.75 3.5H7H7.5V3V0.75C7.5 0.683696 7.52634 0.620107 7.57322 0.573223C7.62011 0.526339 7.6837 0.5 7.75 0.5C7.8163 0.5 7.87989 0.526339 7.92678 0.573223C7.97366 0.620108 8 0.683697 8 0.75V3ZM12.134 9.00001L12.137 8.99999C12.3136 8.99894 12.4841 8.9356 12.6186 8.82116C12.6191 8.82077 12.6195 8.82038 12.62 8.81999L14.6878 7.07183L14.6878 7.07184L14.69 7.07C14.7723 6.99959 14.8384 6.91218 14.8837 6.81378C14.929 6.71539 14.9525 6.60834 14.9525 6.5C14.9525 6.39166 14.929 6.28461 14.8837 6.18622C14.8384 6.08782 14.7723 6.00041 14.69 5.93L14.6878 5.92817L12.62 4.18001C12.6195 4.17963 12.6191 4.17926 12.6187 4.17888C12.4842 4.06442 12.3136 4.00106 12.137 4.00001V4H12.134H2.75C2.55109 4 2.36032 4.07902 2.21967 4.21967C2.07902 4.36032 2 4.55109 2 4.75V8.25C2 8.66414 2.33586 9 2.75 9H7.75L12.134 9.00001Z" stroke="#6E7191"/>
</svg>
